<svg xmlns="http://www.w3.org/2000/svg" width="101" height="28" viewBox="0 0 101 28">
    <path fill="#0140CD" fill-rule="evenodd" d="M77.175 21.426c0 .541-.154.967-.772.967-.62 0-.774-.426-.774-.967V6.575c0-.503.154-.967.774-.967.618 0 .772.464.772.967v5.861h6.575V7.348C83.75 2.514 81.081 0 76.286 0c-4.796 0-7.465 2.514-7.465 7.348v13.304c0 4.795 2.669 7.348 7.465 7.348 4.795 0 7.503-2.553 7.503-7.348v-6.103h-6.614v6.877zm20.202-8.006L100.626.465h-6.574l-2.243 10.557V.465h-6.846v27.071h6.846V17.481l2.165 10.055h6.884L97.377 13.42zM60.88 21.348c0 .619-.155 1.122-.851 1.122s-.89-.503-.89-1.122V.703h-6.845v20.103c0 4.68 2.746 7.194 7.657 7.194 4.951 0 7.697-2.514 7.697-7.194V.703H60.88v20.645zm-39.774-6.576l-2.535-7.635h-4.517v20.399h5.332V19.96l2.623 7.576h4.429V7.137h-5.332v7.635zM7.169 22.378c0 .437-.116.816-.67.816-.524 0-.67-.379-.67-.816V12.266c0-.437.146-.786.67-.786.554 0 .67.349.67.786v10.112zM6.499 6.73C2.361 6.73 0 8.828 0 12.937v8.771c0 4.109 2.361 6.236 6.499 6.236s6.498-2.127 6.498-6.236v-8.771c0-4.109-2.36-6.207-6.498-6.207zm38.06 4.718c0 .619-.194 1.16-.929 1.16h-.387V5.762h.387c.696 0 .929.503.929 1.161v4.525zm6.728 8.199c0-2.089-.85-3.636-2.513-4.564 1.663-.889 2.513-2.359 2.513-4.563V6.691c0-4.022-2.32-6.226-7.231-6.226H24.438v5.607h3.596v21.464h6.807V6.072h1.596v21.464h6.806v-9.591h.387c.696 0 .929.503.929 1.16v5.067c0 1.315.077 2.668.347 3.364h6.73c-.232-.851-.349-2.166-.349-3.364v-4.525z"/>
</svg>
